<?xml version="1.0" encoding="utf-8" ?>
<svg baseProfile="tiny" height="100%" version="1.2" width="100%" xmlns="http://www.w3.org/2000/svg" xmlns:ev="http://www.w3.org/2001/xml-events" xmlns:xlink="http://www.w3.org/1999/xlink"><defs /><path d="M 551,780 L 550,780 L 549,780 L 548,780 L 547,780 L 546,780 L 546,779 L 545,779 L 544,779 L 544,778 L 543,778 L 543,777 L 542,777 L 542,776 L 541,776 L 541,775 L 540,775 L 540,774 L 539,774 L 539,773 L 538,773 L 538,772 L 537,772 L 537,771 L 536,771 L 536,770 L 535,770 L 535,769 L 535,768 L 534,768 L 534,767 L 533,767 L 533,766 L 532,766 L 532,765 L 531,765 L 531,764 L 530,764 L 530,763 L 530,762 L 529,762 L 529,761 L 528,761 L 528,760 L 527,760 L 527,759 L 527,758 L 526,758 L 526,757 L 525,757 L 525,756 L 524,756 L 524,755 L 524,754 L 523,754 L 523,753 L 522,753 L 522,752 L 521,752 L 521,751 L 521,750 L 520,750 L 520,749 L 519,749 L 519,748 L 518,748 L 518,747 L 518,746 L 517,746 L 517,745 L 516,745 L 516,744 L 516,743 L 515,743 L 515,742 L 514,742 L 514,741 L 514,740 L 513,740 L 513,739 L 512,739 L 512,738 L 512,737 L 511,738 L 511,739 L 511,739 L 510,740 L 510,740 L 509,741 L 509,741 L 508,742 L 508,743 L 508,743 L 507,744 L 507,744 L 506,745 L 506,746 L 506,746 L 505,747 L 505,747 L 504,748 L 504,749 L 504,749 L 503,750 L 503,750 L 502,751 L 502,752 L 502,752 L 501,753 L 501,753 L 500,754 L 500,754 L 499,755 L 499,756 L 499,756 L 498,757 L 498,757 L 497,758 L 497,759 L 497,759 L 496,760 L 496,760 L 495,761 L 495,761 L 494,762 L 494,763 L 494,763 L 493,764 L 493,764 L 492,765 L 492,765 L 491,766 L 491,766 L 490,767 L 490,767 L 489,768 L 489,769 L 489,769 L 488,770 L 488,770 L 487,771 L 487,771 L 486,772 L 486,772 L 485,773 L 485,773 L 484,774 L 484,775 L 484,775 L 483,776 L 483,776 L 482,777 L 482,777 L 481,778 L 481,778 L 480,778 L 479,779 L 479,779 L 478,780 L 478,780 L 477,780 L 476,780 L 475,780 L 474,780 L 473,780 L 473,779 L 472,779 L 472,778 L 471,778 L 471,777 L 471,776 L 470,776 L 470,775 L 471,774 L 471,774 L 471,773 L 471,772 L 472,771 L 472,771 L 473,770 L 473,770 L 473,769 L 474,768 L 474,768 L 475,767 L 475,767 L 476,766 L 476,766 L 476,765 L 477,764 L 477,764 L 478,763 L 478,763 L 479,762 L 479,762 L 479,761 L 480,760 L 480,760 L 481,759 L 481,759 L 482,758 L 482,758 L 482,757 L 483,756 L 483,756 L 484,755 L 484,755 L 484,754 L 485,753 L 485,753 L 485,752 L 486,751 L 486,751 L 487,750 L 487,750 L 487,749 L 488,748 L 488,748 L 488,747 L 489,746 L 489,746 L 490,745 L 490,745 L 490,744 L 491,743 L 491,743 L 491,742 L 492,741 L 492,741 L 492,740 L 493,739 L 493,739 L 493,738 L 494,737 L 494,737 L 494,736 L 495,735 L 495,735 L 495,734 L 496,733 L 496,733 L 496,732 L 496,731 L 497,730 L 497,730 L 497,729 L 498,728 L 498,728 L 498,727 L 499,726 L 499,726 L 499,725 L 500,724 L 500,724 L 500,723 L 500,722 L 501,721 L 501,721 L 501,720 L 501,719 L 501,718 L 500,718 L 500,717 L 500,716 L 499,716 L 499,715 L 499,714 L 498,714 L 498,713 L 498,712 L 497,712 L 497,711 L 497,710 L 496,710 L 496,709 L 496,708 L 495,708 L 495,707 L 495,706 L 494,706 L 494,705 L 494,704 L 494,703 L 493,703 L 493,702 L 493,701 L 492,701 L 492,700 L 492,699 L 491,699 L 491,698 L 491,697 L 490,697 L 490,696 L 490,695 L 489,695 L 489,694 L 489,693 L 488,693 L 488,692 L 488,691 L 488,690 L 487,690 L 487,689 L 487,688 L 486,688 L 486,687 L 486,686 L 485,686 L 485,685 L 485,684 L 485,683 L 484,683 L 484,682 L 484,681 L 483,681 L 483,680 L 483,679 L 483,678 L 482,678 L 482,677 L 482,676 L 481,676 L 481,675 L 481,674 L 481,673 L 480,673 L 480,672 L 480,671 L 480,670 L 479,670 L 479,669 L 479,668 L 479,667 L 478,667 L 478,666 L 478,665 L 478,664 L 477,664 L 477,663 L 477,662 L 477,661 L 476,661 L 476,660 L 476,659 L 476,658 L 475,658 L 475,657 L 475,656 L 475,655 L 475,654 L 474,654 L 474,653 L 474,652 L 474,651 L 474,650 L 473,650 L 473,649 L 473,648 L 473,647 L 473,646 L 473,645 L 472,645 L 472,644 L 472,643 L 472,642 L 472,641 L 472,640 L 471,640 L 471,639 L 471,638 L 471,637 L 471,636 L 471,635 L 471,634 L 470,634 L 470,633 L 470,632 L 470,631 L 470,630 L 470,629 L 470,628 L 469,628 L 469,627 L 469,626 L 469,625 L 469,624 L 469,623 L 469,622 L 469,621 L 468,621 L 468,620 L 468,619 L 468,618 L 468,617 L 468,616 L 468,615 L 468,614 L 468,613 L 467,613 L 467,612 L 467,611 L 467,610 L 467,609 L 467,608 L 467,607 L 467,606 L 467,605 L 467,604 L 466,604 L 466,603 L 466,602 L 466,601 L 466,600 L 466,599 L 466,598 L 466,597 L 466,596 L 466,595 L 466,594 L 466,593 L 466,592 L 466,591 L 466,590 L 465,590 L 465,589 L 465,588 L 465,587 L 465,586 L 465,585 L 465,584 L 465,583 L 465,582 L 465,581 L 465,580 L 465,579 L 465,578 L 465,577 L 465,576 L 465,575 L 465,574 L 465,573 L 465,572 L 465,571 L 465,570 L 465,569 L 465,568 L 465,567 L 465,566 L 466,565 L 466,565 L 466,564 L 466,563 L 466,562 L 466,561 L 466,560 L 466,559 L 466,558 L 466,557 L 466,556 L 466,555 L 467,554 L 467,554 L 467,553 L 467,552 L 467,551 L 467,550 L 467,549 L 467,548 L 468,547 L 468,547 L 468,546 L 468,545 L 468,544 L 468,543 L 468,542 L 469,541 L 469,541 L 469,540 L 469,539 L 469,538 L 469,537 L 469,536 L 470,535 L 470,535 L 470,534 L 470,533 L 470,532 L 470,531 L 471,530 L 471,530 L 471,529 L 471,528 L 471,527 L 472,526 L 472,526 L 472,525 L 472,524 L 472,523 L 472,522 L 473,521 L 473,521 L 473,520 L 473,519 L 473,518 L 474,517 L 474,517 L 474,516 L 474,515 L 474,514 L 475,513 L 475,513 L 475,512 L 475,511 L 475,510 L 476,509 L 476,509 L 476,508 L 476,507 L 477,506 L 477,506 L 477,505 L 477,504 L 478,503 L 478,503 L 478,502 L 479,501 L 479,501 L 479,500 L 479,499 L 480,498 L 480,498 L 480,497 L 480,496 L 481,495 L 481,495 L 481,494 L 482,493 L 482,493 L 482,492 L 482,491 L 483,490 L 483,490 L 483,489 L 484,488 L 484,488 L 484,487 L 485,486 L 485,486 L 485,485 L 485,484 L 486,483 L 486,483 L 486,482 L 487,481 L 487,481 L 487,480 L 488,479 L 488,479 L 488,478 L 489,477 L 489,477 L 489,476 L 490,475 L 490,475 L 490,474 L 491,473 L 491,473 L 491,472 L 492,471 L 492,471 L 492,470 L 493,469 L 493,469 L 493,468 L 494,467 L 494,467 L 494,466 L 495,465 L 495,465 L 495,464 L 496,463 L 496,463 L 496,462 L 496,461 L 497,460 L 497,460 L 497,459 L 497,458 L 496,458 L 496,457 L 495,457 L 495,456 L 495,455 L 494,455 L 494,454 L 494,453 L 493,453 L 493,452 L 493,451 L 492,451 L 492,450 L 492,449 L 491,449 L 491,448 L 491,447 L 490,447 L 490,446 L 490,445 L 489,445 L 489,444 L 488,444 L 488,443 L 488,442 L 487,442 L 487,441 L 487,440 L 486,440 L 486,439 L 486,438 L 485,438 L 485,437 L 484,437 L 484,436 L 484,435 L 483,435 L 483,434 L 483,433 L 482,433 L 482,432 L 482,431 L 481,431 L 481,430 L 480,430 L 480,429 L 480,428 L 479,428 L 479,427 L 479,426 L 478,426 L 478,425 L 477,425 L 477,424 L 477,423 L 476,423 L 476,422 L 475,422 L 475,421 L 475,420 L 474,420 L 474,419 L 474,418 L 473,418 L 473,417 L 472,417 L 472,416 L 472,415 L 471,415 L 471,414 L 470,414 L 470,413 L 470,412 L 469,412 L 469,411 L 468,411 L 468,410 L 468,409 L 467,409 L 467,408 L 466,408 L 466,407 L 465,407 L 465,406 L 465,405 L 464,405 L 464,404 L 463,404 L 463,403 L 463,402 L 462,402 L 462,401 L 461,401 L 461,400 L 460,400 L 460,399 L 460,398 L 459,398 L 459,397 L 458,397 L 458,396 L 458,395 L 457,395 L 457,394 L 456,394 L 456,393 L 455,393 L 455,392 L 455,391 L 454,391 L 454,390 L 453,390 L 453,389 L 452,389 L 452,388 L 451,388 L 451,387 L 451,386 L 450,386 L 450,385 L 449,385 L 449,384 L 448,384 L 448,383 L 448,382 L 447,382 L 447,381 L 446,381 L 446,380 L 445,380 L 445,379 L 444,379 L 444,378 L 444,377 L 443,377 L 443,376 L 442,376 L 442,375 L 441,375 L 441,374 L 440,374 L 440,373 L 440,372 L 439,372 L 439,371 L 438,371 L 438,370 L 437,370 L 437,369 L 436,369 L 436,368 L 435,368 L 435,367 L 435,366 L 434,366 L 434,365 L 433,365 L 433,364 L 432,364 L 432,363 L 431,363 L 431,362 L 430,362 L 430,361 L 429,361 L 429,360 L 428,360 L 428,359 L 428,358 L 427,358 L 427,357 L 426,357 L 426,356 L 425,356 L 425,355 L 424,355 L 424,354 L 423,354 L 423,353 L 422,353 L 422,352 L 421,352 L 421,351 L 420,351 L 420,350 L 419,350 L 419,349 L 418,349 L 418,348 L 417,348 L 417,347 L 416,347 L 416,346 L 415,346 L 414,346 L 414,345 L 413,345 L 413,344 L 412,344 L 412,343 L 411,343 L 411,342 L 410,342 L 410,341 L 409,341 L 409,340 L 408,340 L 408,339 L 407,339 L 406,339 L 406,338 L 405,338 L 405,337 L 404,337 L 404,336 L 403,336 L 403,335 L 402,335 L 402,334 L 401,334 L 400,334 L 400,333 L 399,333 L 399,332 L 398,332 L 398,331 L 397,331 L 397,330 L 396,330 L 396,329 L 395,329 L 394,329 L 394,328 L 393,328 L 393,327 L 392,327 L 392,326 L 391,326 L 391,325 L 390,325 L 389,325 L 389,324 L 388,324 L 388,323 L 387,323 L 387,322 L 386,322 L 385,322 L 385,321 L 384,321 L 384,320 L 383,320 L 382,320 L 382,319 L 381,319 L 381,318 L 380,318 L 380,317 L 379,317 L 378,317 L 378,316 L 377,316 L 377,315 L 376,315 L 376,314 L 375,314 L 374,314 L 374,313 L 373,313 L 373,312 L 372,312 L 371,312 L 371,311 L 370,311 L 370,310 L 369,310 L 368,310 L 368,309 L 367,309 L 367,308 L 366,308 L 365,308 L 365,307 L 364,307 L 364,306 L 363,306 L 362,306 L 362,305 L 361,305 L 360,305 L 360,304 L 359,304 L 359,303 L 358,303 L 357,303 L 357,302 L 356,302 L 355,302 L 355,301 L 354,301 L 354,300 L 353,300 L 352,300 L 352,299 L 351,299 L 350,299 L 350,298 L 349,298 L 349,297 L 348,297 L 347,297 L 347,296 L 346,296 L 345,296 L 345,295 L 344,295 L 343,295 L 343,294 L 342,294 L 341,294 L 341,293 L 340,293 L 339,293 L 339,292 L 338,292 L 337,292 L 337,291 L 336,291 L 336,290 L 335,290 L 334,290 L 334,289 L 333,289 L 332,289 L 332,288 L 331,288 L 330,288 L 330,287 L 329,287 L 328,287 L 327,287 L 327,286 L 326,286 L 325,286 L 325,285 L 324,285 L 323,285 L 323,284 L 322,284 L 321,284 L 321,283 L 320,283 L 319,283 L 319,282 L 318,282 L 317,282 L 317,281 L 316,281 L 315,281 L 315,280 L 314,280 L 313,280 L 312,280 L 312,279 L 311,279 L 310,279 L 310,278 L 309,278 L 308,278 L 307,278 L 307,277 L 306,277 L 305,277 L 305,276 L 304,276 L 303,276 L 303,275 L 302,275 L 301,275 L 300,275 L 300,274 L 299,274 L 298,274 L 297,274 L 297,273 L 296,273 L 295,273 L 295,272 L 294,272 L 293,272 L 292,272 L 292,271 L 291,271 L 290,271 L 289,271 L 289,270 L 288,270 L 287,270 L 287,269 L 286,269 L 285,269 L 284,269 L 284,268 L 283,268 L 282,268 L 281,268 L 281,267 L 280,267 L 279,267 L 278,267 L 278,266 L 277,266 L 276,266 L 275,266 L 275,265 L 274,265 L 273,265 L 272,265 L 272,264 L 271,264 L 270,264 L 269,264 L 269,263 L 268,263 L 267,263 L 266,263 L 266,262 L 265,262 L 264,262 L 263,262 L 262,262 L 262,261 L 261,261 L 260,261 L 259,261 L 259,260 L 258,260 L 257,260 L 256,260 L 256,259 L 255,259 L 254,259 L 253,259 L 252,259 L 252,258 L 251,258 L 250,258 L 249,258 L 248,258 L 248,257 L 247,257 L 246,257 L 245,257 L 244,257 L 244,256 L 243,256 L 242,256 L 241,256 L 241,255 L 240,255 L 239,255 L 238,255 L 237,255 L 237,254 L 236,254 L 235,254 L 234,254 L 233,254 L 233,253 L 232,253 L 231,253 L 230,253 L 229,253 L 229,252 L 228,252 L 227,252 L 226,252 L 225,252 L 225,251 L 224,251 L 223,251 L 222,251 L 221,251 L 220,251 L 220,250 L 219,250 L 218,250 L 217,250 L 216,250 L 215,250 L 215,249 L 214,249 L 213,249 L 212,249 L 211,249 L 211,248 L 210,248 L 209,248 L 208,248 L 207,248 L 206,248 L 206,247 L 205,247 L 204,247 L 203,247 L 202,247 L 201,247 L 200,247 L 200,246 L 199,246 L 198,246 L 197,246 L 196,246 L 195,246 L 195,245 L 194,245 L 193,245 L 192,245 L 191,245 L 190,245 L 189,245 L 189,244 L 188,244 L 187,244 L 186,244 L 185,244 L 184,244 L 184,243 L 183,243 L 182,243 L 181,243 L 180,243 L 179,243 L 178,243 L 178,242 L 177,242 L 176,242 L 175,242 L 174,242 L 173,242 L 173,241 L 172,241 L 171,241 L 170,241 L 169,241 L 168,241 L 168,240 L 167,240 L 166,240 L 165,240 L 164,240 L 163,240 L 163,239 L 162,239 L 161,239 L 160,239 L 159,239 L 158,239 L 158,238 L 157,239 L 157,240 L 157,241 L 157,242 L 158,242 L 158,243 L 158,244 L 158,245 L 158,246 L 159,246 L 159,247 L 159,248 L 159,249 L 160,249 L 160,250 L 160,251 L 160,252 L 160,253 L 161,253 L 161,254 L 161,255 L 161,256 L 162,256 L 162,257 L 162,258 L 162,259 L 163,259 L 163,260 L 163,261 L 163,262 L 164,262 L 164,263 L 164,264 L 164,265 L 165,265 L 165,266 L 165,267 L 166,267 L 166,268 L 166,269 L 166,270 L 167,270 L 167,271 L 167,272 L 168,272 L 168,273 L 168,274 L 168,275 L 169,275 L 169,276 L 169,277 L 170,277 L 170,278 L 170,279 L 170,280 L 171,280 L 171,281 L 171,282 L 172,282 L 172,283 L 172,284 L 173,284 L 173,285 L 173,286 L 174,286 L 174,287 L 174,288 L 175,288 L 175,289 L 175,290 L 176,290 L 176,291 L 176,292 L 177,292 L 177,293 L 177,294 L 178,294 L 178,295 L 178,296 L 179,296 L 179,297 L 179,298 L 180,298 L 180,299 L 181,299 L 181,300 L 181,301 L 182,301 L 182,302 L 183,302 L 183,303 L 183,304 L 184,304 L 184,305 L 184,306 L 185,306 L 185,307 L 186,307 L 186,308 L 186,309 L 187,309 L 187,310 L 188,310 L 188,311 L 188,312 L 189,312 L 189,313 L 190,313 L 190,314 L 190,315 L 191,315 L 191,316 L 192,316 L 192,317 L 193,317 L 193,318 L 193,319 L 194,319 L 194,320 L 195,320 L 195,321 L 195,322 L 196,322 L 196,323 L 196,324 L 197,324 L 197,325 L 198,325 L 198,326 L 199,326 L 199,327 L 199,328 L 200,328 L 200,329 L 201,329 L 201,330 L 202,330 L 202,331 L 202,332 L 203,332 L 203,333 L 204,333 L 204,334 L 205,334 L 205,335 L 206,335 L 206,336 L 207,336 L 207,337 L 207,338 L 208,338 L 208,339 L 209,339 L 209,340 L 210,340 L 210,341 L 211,341 L 211,342 L 212,342 L 212,343 L 213,343 L 213,344 L 214,344 L 214,345 L 215,345 L 215,346 L 216,346 L 216,347 L 217,347 L 217,348 L 218,348 L 218,349 L 219,349 L 219,350 L 220,350 L 220,351 L 221,351 L 221,352 L 222,352 L 222,353 L 223,353 L 223,354 L 224,354 L 224,355 L 225,355 L 225,356 L 226,356 L 226,357 L 227,357 L 227,358 L 228,358 L 228,359 L 229,359 L 229,360 L 230,360 L 230,361 L 231,361 L 231,362 L 232,362 L 232,363 L 233,363 L 233,364 L 234,364 L 235,364 L 235,365 L 236,365 L 236,366 L 237,366 L 237,367 L 238,367 L 238,368 L 239,368 L 240,368 L 240,369 L 241,369 L 241,370 L 242,370 L 242,371 L 243,371 L 243,372 L 244,372 L 245,372 L 245,373 L 246,373 L 246,374 L 247,374 L 248,374 L 248,375 L 249,375 L 249,376 L 250,376 L 251,376 L 251,377 L 252,377 L 252,378 L 253,378 L 254,378 L 254,379 L 255,379 L 256,379 L 256,380 L 257,380 L 257,381 L 258,381 L 259,381 L 260,381 L 260,382 L 261,382 L 262,382 L 262,383 L 263,383 L 264,383 L 264,384 L 265,384 L 266,384 L 267,384 L 267,385 L 268,385 L 269,385 L 269,386 L 270,386 L 270,386 L 271,385 L 271,385 L 272,384 L 272,384 L 273,383 L 273,383 L 274,382 L 274,382 L 275,381 L 275,381 L 276,380 L 277,380 L 277,380 L 278,379 L 278,379 L 279,378 L 279,378 L 280,377 L 280,377 L 281,376 L 281,376 L 282,375 L 282,375 L 283,374 L 283,374 L 284,373 L 284,373 L 285,372 L 285,372 L 286,371 L 286,371 L 287,370 L 287,370 L 288,369 L 288,369 L 289,368 L 289,368 L 290,367 L 290,367 L 291,366 L 291,366 L 291,365 L 292,364 L 292,364 L 293,363 L 293,363 L 294,362 L 294,362 L 295,361 L 295,361 L 295,360 L 296,359 L 296,359 L 297,358 L 297,358 L 298,357 L 298,357 L 299,356 L 299,356 L 300,355 L 300,355 L 301,354 L 301,354 L 302,353 L 302,353 L 303,352 L 303,352 L 304,351 L 304,351 L 305,350 L 305,350 L 306,349 L 307,349 L 307,349 L 308,348 L 308,348 L 309,347 L 310,347 L 310,347 L 311,346 L 312,346 L 313,346 L 314,346 L 315,346 L 316,346 L 316,347 L 317,347 L 317,348 L 318,348 L 318,349 L 319,349 L 320,349 L 320,350 L 321,350 L 321,351 L 322,351 L 322,352 L 323,352 L 323,353 L 324,353 L 324,354 L 325,354 L 325,355 L 326,355 L 326,356 L 327,356 L 327,357 L 328,357 L 328,358 L 329,358 L 329,359 L 330,359 L 330,360 L 331,360 L 331,361 L 332,361 L 332,362 L 332,363 L 333,363 L 333,364 L 334,364 L 334,365 L 335,365 L 335,366 L 336,366 L 336,367 L 337,367 L 337,368 L 338,368 L 338,369 L 339,369 L 339,370 L 340,370 L 340,371 L 340,372 L 341,372 L 341,373 L 342,373 L 342,374 L 343,374 L 343,375 L 344,375 L 344,376 L 345,376 L 345,377 L 345,378 L 346,378 L 346,379 L 347,379 L 347,380 L 348,380 L 348,381 L 349,381 L 349,382 L 350,382 L 350,383 L 351,383 L 351,384 L 352,384 L 352,385 L 353,385 L 353,386 L 354,386 L 354,387 L 355,387 L 355,388 L 356,388 L 356,389 L 357,389 L 357,390 L 358,390 L 358,391 L 358,392 L 359,392 L 359,393 L 360,393 L 360,394 L 361,394 L 361,395 L 362,395 L 362,396 L 363,396 L 363,397 L 364,397 L 364,398 L 364,399 L 365,399 L 365,400 L 366,400 L 366,401 L 366,402 L 366,403 L 366,404 L 366,405 L 366,406 L 366,407 L 366,408 L 366,408 L 365,409 L 365,410 L 365,410 L 364,410 L 363,411 L 363,411 L 362,411 L 361,412 L 361,412 L 360,412 L 359,412 L 358,412 L 357,412 L 356,412 L 355,413 L 355,413 L 354,413 L 353,413 L 352,413 L 352,412 L 351,412 L 350,412 L 349,412 L 348,412 L 347,412 L 347,411 L 346,411 L 345,411 L 345,410 L 344,410 L 343,410 L 343,409 L 342,409 L 342,408 L 341,408 L 340,408 L 340,407 L 339,407 L 339,406 L 338,406 L 338,405 L 337,405 L 337,404 L 336,404 L 336,403 L 335,403 L 335,402 L 334,402 L 333,402 L 333,401 L 332,401 L 332,400 L 331,400 L 331,399 L 330,399 L 330,398 L 329,398 L 329,397 L 328,397 L 328,396 L 327,397 L 327,398 L 327,399 L 327,400 L 327,401 L 327,401 L 326,402 L 326,403 L 326,404 L 326,405 L 326,406 L 326,407 L 326,408 L 326,409 L 326,410 L 326,410 L 325,411 L 325,412 L 325,413 L 325,414 L 325,415 L 325,416 L 325,417 L 325,418 L 325,418 L 324,419 L 324,420 L 324,421 L 324,422 L 324,423 L 324,424 L 324,425 L 324,426 L 324,427 L 324,427 L 323,428 L 323,429 L 323,430 L 323,431 L 323,432 L 323,433 L 323,434 L 323,435 L 323,435 L 322,436 L 322,437 L 322,438 L 322,439 L 322,440 L 322,441 L 322,442 L 322,443 L 322,444 L 322,445 L 322,446 L 322,447 L 322,447 L 321,448 L 321,449 L 321,450 L 321,451 L 321,452 L 321,453 L 321,454 L 321,455 L 321,456 L 321,457 L 321,458 L 321,459 L 321,460 L 321,461 L 321,462 L 321,463 L 321,464 L 321,465 L 321,466 L 321,467 L 321,468 L 321,469 L 321,470 L 321,471 L 321,472 L 321,473 L 321,474 L 321,475 L 321,476 L 321,477 L 321,478 L 322,478 L 322,479 L 322,480 L 322,481 L 322,482 L 322,483 L 322,484 L 322,485 L 322,486 L 322,487 L 322,488 L 323,488 L 323,489 L 323,490 L 323,491 L 323,492 L 323,493 L 323,494 L 324,494 L 324,495 L 324,496 L 324,497 L 324,498 L 324,499 L 325,499 L 325,500 L 325,501 L 325,502 L 325,503 L 326,503 L 326,504 L 326,505 L 326,506 L 326,507 L 327,507 L 327,508 L 327,509 L 327,510 L 328,510 L 328,511 L 328,512 L 328,513 L 329,513 L 329,514 L 329,515 L 330,515 L 330,516 L 330,517 L 330,518 L 331,518 L 331,519 L 331,520 L 332,520 L 332,521 L 332,522 L 333,522 L 333,523 L 333,524 L 334,524 L 334,525 L 334,526 L 335,526 L 335,527 L 336,527 L 336,528 L 336,529 L 337,529 L 337,530 L 337,531 L 338,531 L 338,532 L 338,533 L 339,533 L 339,534 L 340,534 L 340,535 L 340,536 L 341,536 L 341,537 L 341,538 L 342,538 L 342,539 L 343,539 L 343,540 L 344,540 L 344,541 L 344,542 L 345,542 L 345,543 L 346,543 L 346,544 L 347,544 L 347,545 L 348,545 L 348,546 L 349,546 L 349,547 L 350,547 L 350,548 L 351,548 L 351,549 L 351,550 L 352,550 L 353,550 L 353,551 L 354,551 L 354,552 L 355,552 L 355,553 L 356,553 L 356,554 L 357,554 L 357,555 L 358,555 L 358,556 L 359,556 L 360,556 L 360,557 L 361,557 L 361,558 L 362,558 L 362,559 L 363,559 L 364,559 L 364,560 L 365,560 L 365,561 L 366,561 L 367,561 L 367,562 L 368,562 L 369,562 L 369,563 L 370,563 L 370,564 L 371,564 L 372,564 L 372,565 L 373,565 L 374,565 L 374,566 L 375,566 L 376,566 L 376,567 L 377,567 L 378,567 L 378,568 L 379,568 L 380,568 L 381,568 L 381,569 L 382,569 L 383,569 L 383,570 L 384,570 L 385,570 L 386,570 L 386,571 L 387,571 L 388,571 L 388,572 L 389,572 L 390,572 L 391,572 L 391,573 L 392,573 L 393,573 L 394,573 L 395,573 L 395,574 L 396,574 L 397,574 L 398,574 L 399,574 L 400,574 L 400,575 L 401,575 L 402,575 L 403,575 L 404,575 L 405,575 L 406,575 L 407,575 L 408,575 L 409,575 L 409,576 L 410,576 L 411,576 L 412,576 L 413,576 L 413,577 L 414,577 L 415,577 L 415,578 L 416,578 L 417,578 L 417,579 L 418,579 L 418,580 L 419,580 L 419,581 L 420,581 L 420,582 L 420,583 L 421,583 L 421,584 L 421,585 L 421,586 L 421,587 L 421,588 L 421,589 L 421,590 L 421,591 L 421,592 L 421,593 L 421,593 L 420,594 L 420,595 L 420,595 L 419,596 L 419,597 L 419,597 L 418,598 L 418,598 L 417,599 L 417,599 L 416,600 L 416,600 L 415,600 L 414,601 L 414,601 L 413,601 L 412,602 L 412,602 L 411,602 L 410,602 L 409,602 L 408,602 L 407,603 L 407,603 L 406,603 L 405,603 L 404,603 L 403,603 L 402,603 L 401,603 L 400,603 L 400,602 L 399,602 L 398,602 L 397,602 L 396,602 L 395,602 L 394,602 L 394,601 L 393,601 L 392,601 L 391,601 L 390,601 L 389,601 L 389,600 L 388,600 L 387,600 L 386,600 L 385,600 L 385,599 L 384,599 L 383,599 L 382,599 L 381,599 L 381,598 L 380,598 L 379,598 L 378,598 L 378,597 L 377,597 L 376,597 L 376,596 L 375,596 L 374,596 L 373,596 L 373,595 L 372,595 L 371,595 L 371,594 L 370,594 L 369,594 L 368,594 L 368,593 L 367,593 L 366,593 L 366,592 L 365,592 L 364,592 L 364,591 L 363,591 L 362,591 L 362,590 L 361,590 L 361,589 L 360,589 L 359,589 L 359,588 L 358,588 L 357,588 L 357,587 L 356,587 L 355,587 L 355,586 L 354,586 L 354,585 L 353,585 L 352,585 L 352,584 L 351,584 L 350,584 L 350,583 L 349,583 L 349,582 L 348,582 L 347,582 L 347,581 L 346,581 L 346,580 L 345,580 L 344,580 L 344,579 L 343,579 L 343,578 L 342,578 L 342,577 L 341,577 L 340,577 L 340,576 L 339,576 L 339,575 L 338,575 L 338,574 L 337,574 L 336,574 L 336,573 L 335,573 L 335,572 L 334,572 L 334,571 L 333,571 L 333,570 L 332,570 L 332,569 L 331,569 L 331,568 L 330,568 L 330,567 L 329,567 L 329,566 L 328,566 L 328,565 L 327,565 L 327,564 L 326,564 L 326,563 L 326,562 L 325,562 L 325,561 L 324,561 L 324,560 L 323,560 L 323,559 L 322,559 L 322,558 L 321,558 L 321,557 L 321,556 L 320,556 L 320,555 L 319,555 L 319,554 L 318,554 L 318,553 L 318,552 L 317,552 L 317,551 L 316,551 L 316,550 L 315,550 L 315,549 L 315,548 L 314,548 L 314,547 L 313,547 L 313,546 L 313,545 L 312,545 L 312,544 L 311,544 L 311,543 L 310,543 L 310,542 L 310,541 L 309,541 L 309,540 L 309,539 L 308,539 L 308,538 L 308,537 L 307,537 L 307,536 L 306,536 L 306,535 L 306,534 L 306,533 L 305,533 L 305,532 L 305,531 L 304,531 L 304,530 L 304,529 L 303,529 L 303,528 L 303,527 L 303,526 L 302,526 L 302,525 L 302,524 L 301,524 L 301,523 L 301,522 L 301,521 L 300,521 L 300,520 L 300,519 L 300,518 L 299,518 L 299,517 L 299,516 L 299,515 L 298,515 L 298,514 L 298,513 L 298,512 L 297,512 L 297,511 L 297,510 L 297,509 L 297,508 L 296,508 L 296,507 L 296,506 L 296,505 L 296,504 L 295,504 L 295,503 L 295,502 L 295,501 L 295,500 L 295,499 L 295,498 L 294,498 L 294,497 L 294,496 L 294,495 L 294,494 L 294,493 L 294,492 L 294,491 L 294,490 L 294,489 L 293,489 L 293,488 L 293,487 L 293,486 L 293,485 L 293,484 L 293,483 L 293,482 L 293,481 L 293,480 L 293,479 L 293,478 L 293,477 L 293,476 L 293,475 L 293,474 L 293,473 L 293,472 L 293,471 L 293,470 L 293,469 L 293,468 L 293,467 L 293,466 L 293,465 L 293,464 L 293,463 L 293,462 L 293,461 L 293,460 L 293,459 L 293,458 L 293,457 L 293,456 L 293,455 L 293,454 L 293,453 L 293,452 L 294,451 L 294,451 L 294,450 L 294,449 L 294,448 L 294,447 L 294,446 L 294,445 L 294,444 L 294,443 L 294,442 L 294,441 L 294,440 L 294,439 L 294,438 L 295,437 L 295,437 L 295,436 L 295,435 L 295,434 L 295,433 L 295,432 L 295,431 L 295,430 L 295,429 L 295,428 L 295,427 L 296,426 L 296,426 L 296,425 L 296,424 L 296,423 L 296,422 L 296,421 L 296,420 L 296,419 L 296,418 L 296,417 L 296,416 L 296,415 L 297,414 L 297,414 L 297,413 L 297,412 L 297,411 L 297,410 L 297,409 L 297,408 L 297,407 L 297,406 L 297,405 L 297,404 L 297,403 L 297,402 L 297,401 L 297,400 L 297,399 L 297,398 L 296,399 L 296,400 L 296,400 L 295,401 L 295,401 L 294,402 L 294,402 L 293,403 L 293,403 L 292,404 L 292,405 L 292,405 L 291,406 L 291,406 L 290,407 L 290,407 L 289,407 L 288,408 L 288,408 L 287,409 L 287,409 L 286,409 L 285,410 L 285,410 L 284,410 L 283,411 L 283,411 L 282,411 L 281,412 L 281,412 L 280,412 L 279,413 L 279,413 L 278,413 L 277,413 L 276,413 L 275,413 L 274,414 L 274,414 L 273,414 L 272,414 L 271,414 L 270,414 L 269,414 L 268,414 L 267,414 L 266,414 L 266,413 L 265,413 L 264,413 L 263,413 L 262,413 L 261,413 L 261,412 L 260,412 L 259,412 L 258,412 L 257,412 L 257,411 L 256,411 L 255,411 L 255,410 L 254,410 L 253,410 L 253,409 L 252,409 L 251,409 L 251,408 L 250,408 L 249,408 L 249,407 L 248,407 L 247,407 L 247,406 L 246,406 L 246,405 L 245,405 L 244,405 L 244,404 L 243,404 L 242,404 L 242,403 L 241,403 L 241,402 L 240,402 L 239,402 L 239,401 L 238,401 L 238,400 L 237,400 L 236,400 L 236,399 L 235,399 L 235,398 L 234,398 L 233,398 L 233,397 L 232,397 L 232,396 L 231,396 L 230,396 L 230,395 L 229,395 L 229,394 L 228,394 L 228,393 L 227,393 L 226,393 L 226,392 L 225,392 L 225,391 L 224,391 L 224,390 L 223,390 L 222,390 L 222,389 L 221,389 L 221,388 L 220,388 L 219,388 L 219,387 L 218,387 L 218,386 L 217,386 L 217,385 L 216,385 L 215,385 L 215,384 L 214,384 L 214,383 L 213,383 L 213,382 L 212,382 L 211,382 L 211,381 L 210,381 L 210,380 L 209,380 L 209,379 L 208,379 L 208,378 L 207,378 L 206,378 L 206,377 L 205,377 L 205,376 L 204,376 L 204,375 L 203,375 L 203,374 L 202,374 L 202,373 L 201,373 L 201,372 L 200,372 L 200,371 L 199,371 L 199,370 L 198,370 L 198,369 L 197,369 L 197,368 L 196,368 L 196,367 L 195,367 L 195,366 L 194,366 L 194,365 L 193,365 L 193,364 L 192,364 L 192,363 L 191,363 L 191,362 L 190,362 L 190,361 L 190,360 L 189,360 L 189,359 L 188,359 L 188,358 L 187,358 L 187,357 L 186,357 L 186,356 L 185,356 L 185,355 L 185,354 L 184,354 L 184,353 L 183,353 L 183,352 L 182,352 L 182,351 L 181,351 L 181,350 L 180,350 L 180,349 L 180,348 L 179,348 L 179,347 L 178,347 L 178,346 L 177,346 L 177,345 L 176,345 L 176,344 L 176,343 L 175,343 L 175,342 L 174,342 L 174,341 L 173,341 L 173,340 L 173,339 L 172,339 L 172,338 L 171,338 L 171,337 L 171,336 L 170,336 L 170,335 L 169,335 L 169,334 L 168,334 L 168,333 L 168,332 L 167,332 L 167,331 L 166,331 L 166,330 L 166,329 L 165,329 L 165,328 L 164,328 L 164,327 L 164,326 L 163,326 L 163,325 L 163,324 L 162,324 L 162,323 L 161,323 L 161,322 L 161,321 L 160,321 L 160,320 L 160,319 L 159,319 L 159,318 L 158,318 L 158,317 L 158,316 L 157,316 L 157,315 L 157,314 L 156,314 L 156,313 L 155,313 L 155,312 L 155,311 L 154,311 L 154,310 L 154,309 L 153,309 L 153,308 L 152,308 L 152,307 L 152,306 L 151,306 L 151,305 L 151,304 L 150,304 L 150,303 L 150,302 L 149,302 L 149,301 L 148,301 L 148,300 L 148,299 L 147,299 L 147,298 L 147,297 L 146,297 L 146,296 L 146,295 L 145,295 L 145,294 L 145,293 L 145,292 L 144,292 L 144,291 L 144,290 L 143,290 L 143,289 L 143,288 L 142,288 L 142,287 L 142,286 L 141,286 L 141,285 L 141,284 L 141,283 L 140,283 L 140,282 L 140,281 L 139,281 L 139,280 L 139,279 L 139,278 L 138,278 L 138,277 L 138,276 L 137,276 L 137,275 L 137,274 L 136,274 L 136,273 L 136,272 L 136,271 L 135,271 L 135,270 L 135,269 L 135,268 L 134,268 L 134,267 L 134,266 L 133,266 L 133,265 L 133,264 L 133,263 L 132,263 L 132,262 L 132,261 L 132,260 L 131,260 L 131,259 L 131,258 L 131,257 L 130,257 L 130,256 L 130,255 L 130,254 L 129,254 L 129,253 L 129,252 L 129,251 L 129,250 L 128,250 L 128,249 L 128,248 L 128,247 L 128,246 L 127,246 L 127,245 L 127,244 L 127,243 L 127,242 L 127,241 L 126,241 L 126,240 L 126,239 L 126,238 L 126,237 L 126,236 L 125,236 L 125,235 L 125,234 L 125,233 L 125,232 L 125,231 L 124,231 L 124,230 L 124,229 L 124,228 L 124,227 L 124,226 L 124,225 L 124,224 L 123,224 L 123,223 L 123,222 L 123,221 L 123,220 L 123,219 L 123,218 L 123,217 L 123,216 L 123,215 L 124,214 L 124,214 L 124,213 L 124,212 L 125,211 L 125,211 L 125,210 L 126,209 L 126,209 L 127,208 L 128,208 L 128,208 L 129,207 L 130,207 L 130,207 L 131,206 L 132,206 L 133,206 L 134,206 L 135,206 L 136,206 L 137,206 L 138,206 L 139,206 L 140,206 L 141,206 L 142,206 L 143,206 L 143,207 L 144,207 L 145,207 L 146,207 L 147,207 L 148,207 L 149,207 L 150,207 L 150,208 L 151,208 L 152,208 L 153,208 L 154,208 L 155,208 L 156,208 L 156,209 L 157,209 L 158,209 L 159,209 L 160,209 L 161,209 L 161,210 L 162,210 L 163,210 L 164,210 L 165,210 L 166,210 L 166,211 L 167,211 L 168,211 L 169,211 L 170,211 L 171,211 L 172,211 L 172,212 L 173,212 L 174,212 L 175,212 L 176,212 L 177,212 L 177,213 L 178,213 L 179,213 L 180,213 L 181,213 L 182,213 L 183,213 L 183,214 L 184,214 L 185,214 L 186,214 L 187,214 L 188,214 L 188,215 L 189,215 L 190,215 L 191,215 L 192,215 L 193,215 L 193,216 L 194,216 L 195,216 L 196,216 L 197,216 L 198,216 L 198,217 L 199,217 L 200,217 L 201,217 L 202,217 L 203,217 L 203,218 L 204,218 L 205,218 L 206,218 L 207,218 L 207,219 L 208,219 L 209,219 L 210,219 L 211,219 L 211,220 L 212,220 L 213,220 L 214,220 L 215,220 L 216,220 L 216,221 L 217,221 L 218,221 L 219,221 L 220,221 L 220,222 L 221,222 L 222,222 L 223,222 L 223,223 L 224,223 L 225,223 L 226,223 L 227,223 L 228,223 L 228,224 L 229,224 L 230,224 L 231,224 L 231,225 L 232,225 L 233,225 L 234,225 L 235,225 L 235,226 L 236,226 L 237,226 L 238,226 L 239,226 L 239,227 L 240,227 L 241,227 L 242,227 L 243,227 L 243,228 L 244,228 L 245,228 L 246,228 L 246,229 L 247,229 L 248,229 L 249,229 L 250,229 L 250,230 L 251,230 L 252,230 L 253,230 L 254,230 L 254,231 L 255,231 L 256,231 L 257,231 L 257,232 L 258,232 L 259,232 L 260,232 L 261,232 L 261,233 L 262,233 L 263,233 L 264,233 L 264,234 L 265,234 L 266,234 L 267,234 L 267,235 L 268,235 L 269,235 L 270,235 L 270,236 L 271,236 L 272,236 L 273,236 L 274,236 L 274,237 L 275,237 L 276,237 L 277,237 L 277,238 L 278,238 L 279,238 L 280,238 L 280,239 L 281,239 L 282,239 L 283,239 L 283,240 L 284,240 L 285,240 L 286,240 L 286,241 L 287,241 L 288,241 L 289,241 L 289,242 L 290,242 L 291,242 L 291,243 L 292,243 L 293,243 L 294,243 L 294,244 L 295,244 L 296,244 L 297,244 L 297,245 L 298,245 L 299,245 L 300,245 L 300,246 L 301,246 L 302,246 L 303,246 L 303,247 L 304,247 L 305,247 L 305,248 L 306,248 L 307,248 L 308,248 L 308,249 L 309,249 L 310,249 L 310,250 L 311,250 L 312,250 L 313,250 L 313,251 L 314,251 L 315,251 L 315,252 L 316,252 L 317,252 L 317,253 L 318,253 L 319,253 L 320,253 L 320,254 L 321,254 L 322,254 L 322,255 L 323,255 L 324,255 L 325,255 L 325,256 L 326,256 L 327,256 L 327,257 L 328,257 L 329,257 L 329,258 L 330,258 L 331,258 L 332,258 L 332,259 L 333,259 L 334,259 L 334,260 L 335,260 L 336,260 L 336,261 L 337,261 L 338,261 L 338,262 L 339,262 L 340,262 L 340,263 L 341,263 L 342,263 L 343,263 L 343,264 L 344,264 L 344,265 L 345,265 L 346,265 L 346,266 L 347,266 L 348,266 L 349,266 L 349,267 L 350,267 L 351,267 L 351,268 L 352,268 L 353,268 L 353,269 L 354,269 L 354,270 L 355,270 L 356,270 L 356,271 L 357,271 L 358,271 L 358,272 L 359,272 L 360,272 L 360,273 L 361,273 L 361,274 L 362,274 L 363,274 L 363,275 L 364,275 L 365,275 L 365,276 L 366,276 L 367,276 L 367,277 L 368,277 L 368,278 L 369,278 L 370,278 L 370,279 L 371,279 L 372,279 L 372,280 L 373,280 L 373,281 L 374,281 L 375,281 L 375,282 L 376,282 L 376,283 L 377,283 L 378,283 L 378,284 L 379,284 L 379,285 L 380,285 L 381,285 L 381,286 L 382,286 L 382,287 L 383,287 L 384,287 L 384,288 L 385,288 L 385,289 L 386,289 L 386,290 L 387,290 L 388,290 L 388,291 L 389,291 L 389,292 L 390,292 L 391,292 L 391,293 L 392,293 L 392,294 L 393,294 L 393,295 L 394,295 L 394,296 L 395,296 L 396,296 L 396,297 L 397,297 L 397,298 L 398,298 L 398,299 L 399,299 L 400,299 L 400,300 L 401,300 L 401,301 L 402,301 L 402,302 L 403,302 L 404,302 L 404,303 L 405,303 L 405,304 L 406,304 L 406,305 L 407,305 L 408,305 L 408,306 L 409,306 L 409,307 L 410,307 L 410,308 L 411,308 L 412,308 L 412,309 L 413,309 L 413,310 L 414,310 L 414,311 L 415,311 L 416,311 L 416,312 L 417,312 L 417,313 L 418,313 L 418,314 L 419,314 L 419,315 L 420,315 L 421,315 L 421,316 L 422,316 L 422,317 L 423,317 L 423,318 L 424,318 L 424,319 L 425,319 L 426,319 L 426,320 L 427,320 L 427,321 L 428,321 L 428,322 L 429,322 L 429,323 L 430,323 L 430,324 L 431,324 L 431,325 L 432,325 L 433,325 L 433,326 L 434,326 L 434,327 L 435,327 L 435,328 L 436,328 L 436,329 L 437,329 L 437,330 L 438,330 L 438,331 L 439,331 L 439,332 L 440,332 L 440,333 L 441,333 L 441,334 L 441,335 L 442,335 L 442,336 L 443,336 L 443,337 L 444,337 L 444,338 L 445,338 L 445,339 L 446,339 L 446,340 L 447,340 L 447,341 L 448,341 L 448,342 L 449,342 L 449,343 L 450,343 L 450,344 L 451,344 L 451,345 L 452,345 L 452,346 L 453,346 L 453,347 L 454,347 L 454,348 L 455,348 L 455,349 L 456,349 L 456,350 L 457,350 L 457,351 L 458,351 L 458,352 L 459,352 L 459,353 L 460,353 L 460,354 L 460,355 L 461,355 L 461,356 L 462,356 L 462,357 L 463,357 L 463,358 L 464,358 L 464,359 L 465,359 L 465,360 L 466,360 L 466,361 L 466,362 L 467,362 L 467,363 L 468,363 L 468,364 L 469,364 L 469,365 L 470,365 L 470,366 L 471,366 L 471,367 L 471,368 L 472,368 L 472,369 L 473,369 L 473,370 L 474,370 L 474,371 L 474,372 L 475,372 L 475,373 L 476,373 L 476,374 L 477,374 L 477,375 L 477,376 L 478,376 L 478,377 L 479,377 L 479,378 L 480,378 L 480,379 L 480,380 L 481,380 L 481,381 L 482,381 L 482,382 L 482,383 L 483,383 L 483,384 L 484,384 L 484,385 L 485,385 L 485,386 L 485,387 L 486,387 L 486,388 L 487,388 L 487,389 L 487,390 L 488,390 L 488,391 L 489,391 L 489,392 L 489,393 L 490,393 L 490,394 L 491,394 L 491,395 L 491,396 L 492,396 L 492,397 L 493,397 L 493,398 L 493,399 L 494,399 L 494,400 L 494,401 L 495,401 L 495,402 L 496,402 L 496,403 L 496,404 L 497,404 L 497,405 L 497,406 L 498,406 L 498,407 L 499,407 L 499,408 L 499,409 L 500,409 L 500,410 L 500,411 L 501,411 L 501,412 L 502,412 L 502,413 L 502,414 L 503,414 L 503,415 L 503,416 L 504,416 L 504,417 L 505,417 L 505,418 L 505,419 L 506,419 L 506,420 L 506,421 L 507,421 L 507,422 L 507,423 L 508,423 L 508,424 L 509,424 L 509,425 L 509,426 L 510,426 L 510,427 L 510,428 L 511,428 L 511,429 L 511,430 L 512,430 L 512,430 L 513,429 L 513,429 L 513,428 L 514,427 L 514,427 L 515,426 L 515,426 L 515,425 L 516,424 L 516,424 L 516,423 L 517,422 L 517,422 L 517,421 L 518,420 L 518,420 L 518,419 L 519,418 L 519,418 L 520,417 L 520,417 L 520,416 L 521,415 L 521,415 L 521,414 L 522,413 L 522,413 L 522,412 L 523,411 L 523,411 L 523,410 L 524,409 L 524,409 L 525,408 L 525,408 L 525,407 L 526,406 L 526,406 L 526,405 L 527,404 L 527,404 L 528,403 L 528,403 L 528,402 L 529,401 L 529,401 L 530,400 L 530,400 L 530,399 L 531,398 L 531,398 L 531,397 L 532,396 L 532,396 L 533,395 L 533,395 L 533,394 L 534,393 L 534,393 L 535,392 L 535,392 L 535,391 L 536,390 L 536,390 L 537,389 L 537,389 L 538,388 L 538,388 L 538,387 L 539,386 L 539,386 L 540,385 L 540,385 L 540,384 L 541,383 L 541,383 L 542,382 L 542,382 L 543,381 L 543,381 L 543,380 L 544,379 L 544,379 L 545,378 L 545,378 L 546,377 L 546,377 L 546,376 L 547,375 L 547,375 L 548,374 L 548,374 L 549,373 L 549,373 L 550,372 L 550,372 L 550,371 L 551,370 L 551,370 L 552,369 L 552,369 L 553,368 L 553,368 L 553,367 L 554,366 L 554,366 L 555,365 L 555,365 L 556,364 L 556,364 L 557,363 L 557,363 L 557,362 L 558,361 L 558,361 L 559,360 L 559,360 L 560,359 L 560,359 L 561,358 L 561,358 L 561,357 L 562,356 L 562,356 L 563,355 L 563,355 L 564,354 L 564,354 L 565,353 L 565,353 L 566,352 L 566,352 L 566,351 L 567,350 L 567,350 L 568,349 L 568,349 L 569,348 L 569,348 L 570,347 L 570,347 L 571,346 L 571,346 L 572,345 L 572,345 L 573,344 L 573,344 L 574,343 L 574,343 L 575,342 L 575,342 L 576,341 L 576,341 L 577,340 L 577,340 L 578,339 L 578,339 L 579,338 L 579,338 L 580,337 L 580,337 L 581,336 L 581,336 L 582,335 L 582,335 L 583,334 L 583,334 L 584,333 L 584,333 L 585,332 L 585,332 L 586,331 L 586,331 L 587,330 L 587,330 L 588,329 L 588,329 L 589,328 L 589,328 L 590,327 L 590,327 L 591,326 L 591,326 L 592,325 L 592,325 L 593,324 L 593,324 L 594,323 L 594,323 L 595,322 L 595,322 L 596,321 L 596,321 L 597,320 L 598,320 L 598,320 L 599,319 L 599,319 L 600,318 L 600,318 L 601,317 L 601,317 L 602,316 L 602,316 L 603,315 L 603,315 L 604,314 L 604,314 L 605,313 L 606,313 L 606,313 L 607,312 L 607,312 L 608,311 L 608,311 L 609,310 L 609,310 L 610,309 L 611,309 L 611,309 L 612,308 L 612,308 L 613,307 L 613,307 L 614,306 L 615,306 L 615,306 L 616,305 L 616,305 L 617,304 L 617,304 L 618,303 L 619,303 L 619,303 L 620,302 L 620,302 L 621,301 L 622,301 L 622,301 L 623,300 L 623,300 L 624,299 L 624,299 L 625,298 L 626,298 L 626,298 L 627,297 L 627,297 L 628,296 L 628,296 L 629,295 L 630,295 L 630,295 L 631,294 L 631,294 L 632,293 L 633,293 L 633,293 L 634,292 L 634,292 L 635,291 L 636,291 L 636,291 L 637,290 L 637,290 L 638,289 L 639,289 L 639,289 L 640,288 L 640,288 L 641,287 L 642,287 L 642,287 L 643,286 L 643,286 L 644,285 L 644,285 L 645,284 L 646,284 L 646,284 L 647,283 L 647,283 L 648,282 L 649,282 L 649,282 L 650,281 L 650,281 L 651,280 L 652,280 L 652,280 L 653,279 L 654,279 L 654,279 L 655,278 L 655,278 L 656,277 L 657,277 L 657,277 L 658,276 L 659,276 L 659,276 L 660,275 L 661,275 L 661,275 L 662,274 L 662,274 L 663,273 L 664,273 L 664,273 L 665,272 L 666,272 L 666,272 L 667,271 L 668,271 L 668,271 L 669,270 L 670,270 L 670,270 L 671,269 L 671,269 L 672,268 L 673,268 L 673,268 L 674,267 L 675,267 L 675,267 L 676,266 L 677,266 L 677,266 L 678,265 L 679,265 L 679,265 L 680,264 L 681,264 L 681,264 L 682,263 L 683,263 L 683,263 L 684,262 L 685,262 L 685,262 L 686,261 L 687,261 L 687,261 L 688,260 L 689,260 L 689,260 L 690,259 L 691,259 L 691,259 L 692,258 L 693,258 L 693,258 L 694,257 L 695,257 L 695,257 L 696,256 L 697,256 L 697,256 L 698,255 L 699,255 L 699,255 L 700,254 L 701,254 L 701,254 L 702,253 L 703,253 L 704,253 L 704,253 L 705,252 L 706,252 L 706,252 L 707,251 L 708,251 L 708,251 L 709,250 L 710,250 L 711,250 L 711,250 L 712,249 L 713,249 L 714,249 L 714,249 L 715,248 L 716,248 L 716,248 L 717,247 L 718,247 L 719,247 L 719,247 L 720,246 L 721,246 L 722,246 L 722,246 L 723,245 L 724,245 L 724,245 L 725,244 L 726,244 L 727,244 L 727,244 L 728,243 L 729,243 L 730,243 L 730,243 L 731,242 L 732,242 L 733,242 L 733,242 L 734,241 L 735,241 L 736,241 L 736,241 L 737,240 L 738,240 L 739,240 L 739,240 L 740,239 L 741,239 L 742,239 L 742,239 L 743,238 L 744,238 L 745,238 L 745,238 L 746,237 L 747,237 L 747,237 L 748,236 L 749,236 L 750,236 L 751,236 L 751,236 L 752,235 L 753,235 L 754,235 L 754,235 L 755,234 L 756,234 L 757,234 L 757,234 L 758,233 L 759,233 L 760,233 L 760,233 L 761,232 L 762,232 L 763,232 L 764,232 L 764,232 L 765,231 L 766,231 L 767,231 L 767,231 L 768,230 L 769,230 L 770,230 L 770,230 L 771,229 L 772,229 L 773,229 L 774,229 L 774,229 L 775,228 L 776,228 L 777,228 L 777,228 L 778,227 L 779,227 L 780,227 L 781,227 L 781,227 L 782,226 L 783,226 L 784,226 L 785,226 L 785,226 L 786,225 L 787,225 L 788,225 L 788,225 L 789,224 L 790,224 L 791,224 L 792,224 L 793,224 L 793,224 L 794,223 L 795,223 L 796,223 L 796,223 L 797,222 L 798,222 L 799,222 L 800,222 L 800,222 L 801,221 L 802,221 L 803,221 L 804,221 L 805,221 L 805,221 L 806,220 L 807,220 L 808,220 L 809,220 L 809,220 L 810,219 L 811,219 L 812,219 L 813,219 L 813,219 L 814,218 L 815,218 L 816,218 L 817,218 L 818,218 L 818,218 L 819,217 L 820,217 L 821,217 L 822,217 L 822,217 L 823,216 L 824,216 L 825,216 L 826,216 L 827,216 L 827,216 L 828,215 L 829,215 L 830,215 L 831,215 L 832,215 L 832,215 L 833,214 L 834,214 L 835,214 L 836,214 L 837,214 L 837,214 L 838,213 L 839,213 L 840,213 L 841,213 L 842,213 L 843,213 L 843,213 L 844,212 L 845,212 L 846,212 L 847,212 L 848,212 L 848,212 L 849,211 L 850,211 L 851,211 L 852,211 L 853,211 L 854,211 L 854,211 L 855,210 L 856,210 L 857,210 L 858,210 L 859,210 L 860,210 L 860,210 L 861,209 L 862,209 L 863,209 L 864,209 L 865,209 L 866,209 L 866,209 L 867,208 L 868,208 L 869,208 L 870,208 L 871,208 L 872,208 L 873,208 L 873,208 L 874,207 L 875,207 L 876,207 L 877,207 L 878,207 L 879,207 L 880,207 L 880,207 L 881,206 L 882,206 L 883,206 L 884,206 L 885,206 L 886,206 L 887,206 L 888,206 L 889,206 L 890,206 L 891,206 L 892,206 L 893,206 L 893,207 L 894,207 L 895,207 L 896,207 L 896,208 L 897,208 L 897,209 L 898,209 L 898,210 L 898,211 L 899,211 L 899,212 L 899,213 L 900,213 L 900,214 L 900,215 L 900,216 L 900,217 L 900,218 L 900,219 L 900,220 L 900,221 L 900,222 L 900,223 L 900,223 L 899,224 L 899,225 L 899,226 L 899,227 L 899,228 L 899,228 L 898,229 L 898,230 L 898,231 L 898,232 L 898,233 L 898,233 L 897,234 L 897,235 L 897,236 L 897,237 L 897,238 L 897,238 L 896,239 L 896,240 L 896,241 L 896,242 L 896,242 L 895,243 L 895,244 L 895,245 L 895,246 L 895,247 L 895,247 L 894,248 L 894,249 L 894,250 L 894,251 L 894,252 L 894,252 L 893,253 L 893,254 L 893,255 L 893,256 L 893,256 L 892,257 L 892,258 L 892,259 L 892,260 L 892,260 L 891,261 L 891,262 L 891,263 L 891,263 L 890,264 L 890,265 L 890,266 L 890,267 L 890,267 L 889,268 L 889,269 L 889,270 L 889,270 L 888,271 L 888,272 L 888,272 L 887,273 L 887,274 L 887,275 L 887,275 L 886,276 L 886,277 L 886,277 L 885,278 L 885,279 L 885,279 L 884,280 L 884,281 L 884,282 L 884,282 L 883,283 L 883,284 L 883,284 L 882,285 L 882,286 L 882,286 L 881,287 L 881,288 L 881,288 L 880,289 L 880,290 L 880,290 L 879,291 L 879,292 L 879,292 L 878,293 L 878,294 L 878,295 L 878,295 L 877,296 L 877,297 L 877,297 L 876,298 L 876,299 L 876,299 L 875,300 L 875,301 L 875,301 L 874,302 L 874,303 L 874,303 L 873,304 L 873,305 L 873,305 L 872,306 L 872,307 L 872,307 L 871,308 L 871,309 L 871,309 L 870,310 L 870,311 L 870,311 L 869,312 L 869,313 L 869,313 L 868,314 L 868,314 L 867,315 L 867,316 L 867,316 L 866,317 L 866,318 L 866,318 L 865,319 L 865,319 L 864,320 L 864,321 L 864,321 L 863,322 L 863,322 L 862,323 L 862,324 L 862,324 L 861,325 L 861,325 L 860,326 L 860,327 L 860,327 L 859,328 L 859,328 L 858,329 L 858,329 L 857,330 L 857,331 L 857,331 L 856,332 L 856,332 L 855,333 L 855,333 L 854,334 L 854,335 L 854,335 L 853,336 L 853,336 L 852,337 L 852,337 L 851,338 L 851,339 L 851,339 L 850,340 L 850,340 L 849,341 L 849,341 L 848,342 L 848,342 L 847,343 L 847,344 L 847,344 L 846,345 L 846,345 L 845,346 L 845,346 L 844,347 L 844,347 L 843,348 L 843,348 L 842,349 L 842,350 L 842,350 L 841,351 L 841,351 L 840,352 L 840,352 L 839,353 L 839,353 L 838,354 L 838,354 L 837,355 L 837,355 L 836,356 L 836,357 L 836,357 L 835,358 L 835,358 L 834,359 L 834,359 L 833,360 L 833,360 L 832,361 L 832,361 L 831,362 L 831,362 L 830,363 L 830,363 L 829,364 L 829,364 L 828,365 L 828,365 L 827,366 L 827,366 L 826,367 L 826,367 L 825,368 L 825,368 L 824,369 L 824,369 L 823,370 L 823,370 L 822,371 L 822,371 L 821,372 L 821,372 L 820,373 L 820,373 L 819,374 L 819,374 L 818,375 L 818,375 L 817,376 L 817,376 L 816,377 L 816,377 L 815,377 L 814,378 L 814,378 L 813,379 L 813,379 L 812,380 L 812,380 L 811,381 L 811,381 L 810,382 L 810,382 L 809,383 L 809,383 L 808,384 L 808,384 L 807,384 L 806,385 L 806,385 L 805,386 L 805,386 L 804,387 L 804,387 L 803,388 L 803,388 L 802,389 L 802,389 L 801,389 L 800,390 L 800,390 L 799,391 L 799,391 L 798,392 L 798,392 L 797,392 L 796,393 L 796,393 L 795,394 L 795,394 L 794,395 L 794,395 L 793,395 L 792,396 L 792,396 L 791,397 L 791,397 L 790,397 L 789,398 L 789,398 L 788,399 L 788,399 L 787,399 L 786,400 L 786,400 L 785,401 L 785,401 L 784,401 L 783,402 L 783,402 L 782,402 L 781,403 L 781,403 L 780,404 L 780,404 L 779,404 L 778,405 L 778,405 L 777,405 L 776,406 L 776,406 L 775,407 L 775,407 L 774,407 L 773,408 L 773,408 L 772,408 L 771,409 L 771,409 L 770,409 L 769,410 L 769,410 L 768,410 L 767,411 L 767,411 L 766,411 L 765,411 L 764,412 L 764,412 L 763,412 L 762,412 L 761,412 L 760,413 L 760,413 L 759,413 L 758,413 L 757,413 L 756,413 L 755,413 L 754,413 L 753,413 L 752,413 L 751,413 L 750,413 L 749,413 L 748,413 L 747,413 L 746,413 L 745,413 L 745,412 L 744,412 L 743,412 L 742,412 L 742,411 L 741,411 L 740,411 L 740,410 L 739,410 L 738,410 L 738,409 L 737,409 L 736,409 L 736,408 L 735,408 L 734,408 L 734,407 L 733,407 L 733,406 L 732,406 L 732,405 L 731,405 L 731,404 L 730,404 L 730,403 L 729,403 L 729,402 L 729,401 L 728,401 L 728,400 L 727,400 L 727,399 L 727,398 L 726,398 L 726,397 L 725,398 L 725,399 L 726,399 L 726,400 L 726,401 L 726,402 L 726,403 L 726,404 L 726,405 L 726,406 L 726,407 L 726,408 L 726,409 L 726,410 L 727,410 L 727,411 L 727,412 L 727,413 L 727,414 L 727,415 L 727,416 L 727,417 L 727,418 L 727,419 L 727,420 L 727,421 L 728,421 L 728,422 L 728,423 L 728,424 L 728,425 L 728,426 L 728,427 L 728,428 L 728,429 L 728,430 L 728,431 L 728,432 L 728,433 L 728,434 L 728,435 L 729,435 L 729,436 L 729,437 L 729,438 L 729,439 L 729,440 L 729,441 L 729,442 L 729,443 L 729,444 L 729,445 L 729,446 L 729,447 L 729,448 L 729,449 L 729,450 L 729,451 L 729,452 L 729,453 L 729,454 L 730,454 L 730,455 L 730,456 L 730,457 L 730,458 L 730,459 L 730,460 L 730,461 L 730,462 L 730,463 L 730,464 L 730,465 L 730,466 L 730,467 L 730,468 L 730,469 L 730,470 L 730,471 L 730,472 L 730,473 L 730,474 L 730,475 L 730,476 L 730,477 L 730,478 L 730,479 L 730,480 L 730,481 L 730,482 L 730,483 L 730,484 L 730,485 L 730,486 L 730,486 L 729,487 L 729,488 L 729,489 L 729,490 L 729,491 L 729,492 L 729,493 L 729,494 L 729,494 L 728,495 L 728,496 L 728,497 L 728,498 L 728,499 L 728,500 L 728,500 L 727,501 L 727,502 L 727,503 L 727,504 L 727,504 L 726,505 L 726,506 L 726,507 L 726,508 L 726,508 L 725,509 L 725,510 L 725,511 L 725,512 L 725,512 L 724,513 L 724,514 L 724,515 L 724,516 L 724,516 L 723,517 L 723,518 L 723,519 L 723,519 L 722,520 L 722,521 L 722,522 L 722,522 L 721,523 L 721,524 L 721,525 L 721,525 L 720,526 L 720,527 L 720,527 L 719,528 L 719,529 L 719,530 L 719,530 L 718,531 L 718,532 L 718,532 L 717,533 L 717,534 L 717,534 L 716,535 L 716,536 L 716,536 L 715,537 L 715,538 L 715,538 L 714,539 L 714,540 L 714,540 L 713,541 L 713,542 L 713,542 L 712,543 L 712,544 L 712,544 L 711,545 L 711,545 L 710,546 L 710,547 L 710,547 L 709,548 L 709,548 L 708,549 L 708,550 L 708,550 L 707,551 L 707,551 L 706,552 L 706,553 L 706,553 L 705,554 L 705,554 L 704,555 L 704,556 L 704,556 L 703,557 L 703,557 L 702,558 L 702,558 L 701,559 L 701,560 L 701,560 L 700,561 L 700,561 L 699,562 L 699,562 L 698,563 L 698,563 L 697,564 L 697,564 L 696,565 L 696,565 L 695,566 L 695,566 L 694,567 L 694,567 L 693,568 L 693,568 L 692,569 L 692,569 L 691,570 L 691,570 L 690,571 L 690,571 L 689,572 L 689,572 L 688,573 L 688,573 L 687,574 L 687,574 L 686,575 L 686,575 L 685,576 L 685,576 L 684,577 L 684,577 L 683,577 L 682,578 L 682,578 L 681,579 L 681,579 L 680,580 L 680,580 L 679,580 L 678,581 L 678,581 L 677,582 L 677,582 L 676,582 L 675,583 L 675,583 L 674,583 L 673,584 L 673,584 L 672,585 L 672,585 L 671,585 L 670,586 L 670,586 L 669,586 L 668,587 L 668,587 L 667,587 L 666,588 L 666,588 L 665,589 L 665,589 L 664,589 L 663,590 L 663,590 L 662,590 L 661,591 L 661,591 L 660,591 L 659,592 L 659,592 L 658,592 L 657,593 L 657,593 L 656,593 L 655,594 L 655,594 L 654,594 L 653,594 L 652,595 L 652,595 L 651,595 L 650,596 L 650,596 L 649,596 L 648,596 L 647,597 L 647,597 L 646,597 L 645,597 L 644,598 L 644,598 L 643,598 L 642,598 L 641,599 L 641,599 L 640,599 L 639,599 L 638,599 L 637,600 L 637,600 L 636,600 L 635,600 L 634,600 L 633,601 L 633,601 L 632,601 L 631,601 L 630,601 L 629,601 L 628,602 L 628,602 L 627,602 L 626,602 L 625,602 L 624,602 L 623,602 L 622,602 L 621,603 L 621,603 L 620,603 L 619,603 L 618,603 L 618,602 L 617,602 L 616,602 L 615,602 L 614,602 L 613,602 L 613,601 L 612,601 L 611,601 L 611,600 L 610,600 L 609,600 L 609,599 L 608,599 L 607,599 L 607,598 L 606,598 L 606,597 L 605,597 L 605,596 L 604,596 L 604,595 L 603,595 L 603,594 L 603,593 L 602,593 L 602,592 L 602,591 L 602,590 L 602,589 L 601,589 L 601,588 L 601,587 L 602,586 L 602,586 L 602,585 L 602,584 L 603,583 L 603,583 L 603,582 L 604,581 L 604,581 L 605,580 L 605,580 L 606,579 L 606,579 L 607,578 L 608,578 L 608,578 L 609,577 L 610,577 L 610,577 L 611,576 L 612,576 L 613,576 L 614,576 L 615,576 L 615,576 L 616,575 L 617,575 L 618,575 L 619,575 L 620,575 L 621,575 L 622,575 L 623,575 L 624,575 L 624,575 L 625,574 L 626,574 L 627,574 L 628,574 L 628,574 L 629,573 L 630,573 L 631,573 L 632,573 L 632,573 L 633,572 L 634,572 L 634,572 L 635,571 L 636,571 L 637,571 L 638,571 L 638,571 L 639,570 L 640,570 L 640,570 L 641,569 L 642,569 L 643,569 L 643,569 L 644,568 L 645,568 L 645,568 L 646,567 L 647,567 L 647,567 L 648,566 L 649,566 L 649,566 L 650,565 L 651,565 L 651,565 L 652,564 L 653,564 L 653,564 L 654,563 L 654,563 L 655,562 L 656,562 L 656,562 L 657,561 L 658,561 L 658,561 L 659,560 L 659,560 L 660,559 L 661,559 L 661,559 L 662,558 L 662,558 L 663,557 L 664,557 L 664,557 L 665,556 L 665,556 L 666,555 L 667,555 L 667,555 L 668,554 L 668,554 L 669,553 L 669,553 L 670,552 L 670,552 L 671,551 L 671,551 L 672,550 L 672,550 L 673,549 L 673,549 L 674,548 L 674,548 L 675,547 L 675,547 L 676,546 L 676,546 L 677,545 L 677,545 L 678,544 L 678,544 L 679,543 L 679,543 L 680,542 L 680,542 L 681,541 L 681,541 L 681,540 L 682,539 L 682,539 L 683,538 L 683,538 L 683,537 L 684,536 L 684,536 L 685,535 L 685,535 L 685,534 L 686,533 L 686,533 L 687,532 L 687,532 L 687,531 L 688,530 L 688,530 L 688,529 L 689,528 L 689,528 L 689,527 L 690,526 L 690,526 L 690,525 L 691,524 L 691,524 L 691,523 L 692,522 L 692,522 L 692,521 L 693,520 L 693,520 L 693,519 L 694,518 L 694,518 L 694,517 L 694,516 L 695,515 L 695,515 L 695,514 L 695,513 L 696,512 L 696,512 L 696,511 L 696,510 L 697,509 L 697,509 L 697,508 L 697,507 L 698,506 L 698,506 L 698,505 L 698,504 L 698,503 L 699,502 L 699,502 L 699,501 L 699,500 L 699,499 L 699,498 L 700,497 L 700,497 L 700,496 L 700,495 L 700,494 L 700,493 L 701,492 L 701,492 L 701,491 L 701,490 L 701,489 L 701,488 L 701,487 L 701,486 L 702,485 L 702,485 L 702,484 L 702,483 L 702,482 L 702,481 L 702,480 L 702,479 L 702,478 L 702,477 L 702,476 L 702,475 L 702,474 L 702,473 L 702,472 L 702,471 L 702,470 L 702,469 L 702,468 L 702,467 L 702,466 L 702,465 L 702,464 L 702,463 L 702,462 L 702,461 L 702,460 L 702,459 L 702,458 L 702,457 L 702,456 L 702,455 L 702,454 L 702,453 L 702,452 L 702,451 L 702,450 L 702,449 L 701,449 L 701,448 L 701,447 L 701,446 L 701,445 L 701,444 L 701,443 L 701,442 L 701,441 L 701,440 L 701,439 L 701,438 L 700,438 L 700,437 L 700,436 L 700,435 L 700,434 L 700,433 L 700,432 L 700,431 L 700,430 L 700,429 L 699,429 L 699,428 L 699,427 L 699,426 L 699,425 L 699,424 L 699,423 L 699,422 L 699,421 L 698,421 L 698,420 L 698,419 L 698,418 L 698,417 L 698,416 L 698,415 L 698,414 L 698,413 L 697,413 L 697,412 L 697,411 L 697,410 L 697,409 L 697,408 L 697,407 L 697,406 L 696,406 L 696,405 L 696,404 L 696,403 L 696,402 L 696,401 L 696,400 L 696,399 L 696,398 L 696,397 L 695,397 L 694,398 L 694,398 L 693,399 L 693,399 L 692,400 L 692,400 L 691,401 L 691,401 L 690,402 L 690,402 L 689,403 L 689,403 L 688,404 L 688,404 L 687,404 L 686,405 L 686,405 L 685,406 L 685,406 L 684,407 L 684,407 L 683,408 L 683,408 L 682,408 L 681,409 L 681,409 L 680,410 L 680,410 L 679,410 L 678,411 L 678,411 L 677,411 L 676,412 L 676,412 L 675,412 L 674,412 L 673,412 L 672,412 L 671,412 L 670,412 L 669,412 L 668,412 L 667,412 L 666,412 L 665,412 L 664,412 L 663,412 L 663,411 L 662,411 L 661,411 L 660,411 L 660,410 L 659,410 L 659,409 L 658,409 L 658,408 L 658,407 L 658,406 L 657,406 L 657,405 L 657,404 L 657,403 L 657,402 L 658,401 L 658,401 L 659,400 L 659,400 L 659,399 L 660,398 L 660,398 L 661,397 L 661,397 L 662,396 L 662,396 L 662,395 L 663,394 L 663,394 L 664,393 L 664,393 L 665,392 L 665,392 L 666,391 L 666,391 L 667,390 L 667,390 L 668,389 L 668,389 L 669,388 L 669,388 L 670,387 L 670,387 L 671,386 L 671,386 L 672,385 L 672,385 L 673,384 L 673,384 L 674,383 L 674,383 L 675,382 L 675,382 L 676,381 L 676,381 L 677,380 L 677,380 L 678,379 L 678,379 L 679,378 L 679,378 L 680,377 L 680,377 L 680,376 L 681,375 L 681,375 L 682,374 L 682,374 L 683,373 L 683,373 L 684,372 L 684,372 L 685,371 L 685,371 L 685,370 L 686,369 L 686,369 L 687,368 L 687,368 L 688,367 L 688,367 L 689,366 L 689,366 L 690,365 L 690,365 L 691,364 L 691,364 L 692,363 L 692,363 L 693,362 L 693,362 L 694,361 L 694,361 L 695,360 L 695,360 L 696,359 L 696,359 L 697,358 L 697,358 L 698,357 L 698,357 L 699,356 L 699,356 L 700,355 L 700,355 L 701,354 L 701,354 L 702,353 L 702,353 L 703,352 L 703,352 L 704,351 L 704,351 L 705,350 L 705,350 L 706,349 L 706,349 L 707,348 L 707,348 L 708,347 L 709,347 L 709,347 L 710,346 L 711,346 L 711,346 L 712,345 L 712,346 L 713,346 L 714,346 L 714,347 L 715,347 L 716,347 L 716,348 L 717,348 L 718,348 L 718,349 L 719,349 L 719,350 L 720,350 L 720,351 L 721,351 L 721,352 L 722,352 L 723,352 L 723,353 L 724,353 L 724,354 L 725,354 L 725,355 L 726,355 L 726,356 L 727,356 L 727,357 L 728,357 L 728,358 L 729,358 L 729,359 L 730,359 L 730,360 L 731,360 L 731,361 L 731,362 L 732,362 L 732,363 L 733,363 L 733,364 L 734,364 L 734,365 L 735,365 L 735,366 L 735,367 L 736,367 L 736,368 L 737,368 L 737,369 L 738,369 L 738,370 L 739,370 L 739,371 L 740,371 L 740,372 L 741,372 L 741,373 L 742,373 L 742,374 L 743,374 L 743,375 L 744,375 L 744,376 L 745,376 L 745,377 L 746,377 L 746,378 L 747,378 L 747,379 L 748,379 L 748,380 L 749,380 L 749,381 L 750,381 L 750,382 L 751,382 L 751,383 L 752,383 L 752,384 L 753,384 L 753,385 L 754,385 L 755,385 L 756,385 L 757,385 L 757,385 L 758,384 L 759,384 L 760,384 L 760,384 L 761,383 L 762,383 L 762,383 L 763,382 L 764,382 L 764,382 L 765,381 L 766,381 L 766,381 L 767,380 L 768,380 L 768,380 L 769,379 L 770,379 L 770,379 L 771,378 L 771,378 L 772,377 L 773,377 L 773,377 L 774,376 L 775,376 L 775,376 L 776,375 L 776,375 L 777,374 L 778,374 L 778,374 L 779,373 L 779,373 L 780,372 L 780,372 L 781,371 L 782,371 L 782,371 L 783,370 L 783,370 L 784,369 L 784,369 L 785,368 L 785,368 L 786,367 L 787,367 L 787,367 L 788,366 L 788,366 L 789,365 L 789,365 L 790,364 L 790,364 L 791,363 L 791,363 L 792,362 L 793,362 L 793,362 L 794,361 L 794,361 L 795,360 L 795,360 L 796,359 L 796,359 L 797,358 L 797,358 L 798,357 L 798,357 L 799,356 L 799,356 L 800,355 L 800,355 L 801,354 L 801,354 L 802,353 L 802,353 L 803,352 L 803,352 L 804,351 L 804,351 L 805,350 L 805,350 L 806,349 L 806,349 L 807,348 L 807,348 L 808,347 L 808,347 L 809,346 L 809,346 L 810,345 L 810,345 L 811,344 L 811,344 L 812,343 L 812,343 L 813,342 L 813,342 L 814,341 L 814,341 L 815,340 L 815,340 L 816,339 L 816,339 L 817,338 L 817,338 L 818,337 L 818,337 L 819,336 L 819,336 L 820,335 L 820,335 L 821,334 L 821,334 L 822,333 L 822,333 L 822,332 L 823,331 L 823,331 L 824,330 L 824,330 L 824,329 L 825,328 L 825,328 L 826,327 L 826,327 L 826,326 L 827,325 L 827,325 L 828,324 L 828,324 L 828,323 L 829,322 L 829,322 L 830,321 L 830,321 L 831,320 L 831,320 L 831,319 L 832,318 L 832,318 L 833,317 L 833,317 L 833,316 L 834,315 L 834,315 L 835,314 L 835,314 L 835,313 L 836,312 L 836,312 L 837,311 L 837,311 L 837,310 L 838,309 L 838,309 L 839,308 L 839,308 L 839,307 L 840,306 L 840,306 L 841,305 L 841,305 L 841,304 L 842,303 L 842,303 L 842,302 L 843,301 L 843,301 L 844,300 L 844,300 L 844,299 L 845,298 L 845,298 L 845,297 L 846,296 L 846,296 L 846,295 L 847,294 L 847,294 L 847,293 L 848,292 L 848,292 L 848,291 L 849,290 L 849,290 L 849,289 L 849,288 L 850,287 L 850,287 L 850,286 L 851,285 L 851,285 L 851,284 L 852,283 L 852,283 L 852,282 L 853,281 L 853,281 L 853,280 L 854,279 L 854,279 L 854,278 L 854,277 L 855,276 L 855,276 L 855,275 L 856,274 L 856,274 L 856,273 L 856,272 L 857,271 L 857,271 L 857,270 L 857,269 L 858,268 L 858,268 L 858,267 L 858,266 L 859,265 L 859,265 L 859,264 L 860,263 L 860,263 L 860,262 L 860,261 L 861,260 L 861,260 L 861,259 L 861,258 L 862,257 L 862,257 L 862,256 L 862,255 L 863,254 L 863,254 L 863,253 L 863,252 L 863,251 L 864,250 L 864,250 L 864,249 L 864,248 L 864,247 L 865,246 L 865,246 L 865,245 L 865,244 L 865,243 L 866,242 L 866,242 L 866,241 L 866,240 L 866,239 L 866,238 L 865,239 L 865,239 L 864,239 L 863,239 L 862,239 L 861,239 L 860,240 L 860,240 L 859,240 L 858,240 L 857,240 L 856,240 L 855,240 L 854,241 L 854,241 L 853,241 L 852,241 L 851,241 L 850,241 L 849,241 L 848,242 L 848,242 L 847,242 L 846,242 L 845,242 L 844,242 L 843,242 L 842,243 L 842,243 L 841,243 L 840,243 L 839,243 L 838,243 L 837,243 L 836,244 L 836,244 L 835,244 L 834,244 L 833,244 L 832,244 L 831,244 L 830,245 L 830,245 L 829,245 L 828,245 L 827,245 L 826,245 L 825,246 L 825,246 L 824,246 L 823,246 L 822,246 L 821,246 L 820,247 L 820,247 L 819,247 L 818,247 L 817,247 L 816,247 L 815,248 L 815,248 L 814,248 L 813,248 L 812,248 L 811,248 L 810,249 L 810,249 L 809,249 L 808,249 L 807,249 L 806,250 L 806,250 L 805,250 L 804,250 L 803,250 L 802,250 L 801,251 L 801,251 L 800,251 L 799,251 L 798,251 L 797,252 L 797,252 L 796,252 L 795,252 L 794,252 L 793,253 L 793,253 L 792,253 L 791,253 L 790,253 L 789,253 L 788,254 L 788,254 L 787,254 L 786,254 L 785,255 L 785,255 L 784,255 L 783,255 L 782,255 L 781,256 L 781,256 L 780,256 L 779,256 L 778,256 L 777,257 L 777,257 L 776,257 L 775,257 L 774,258 L 774,258 L 773,258 L 772,258 L 771,258 L 770,259 L 770,259 L 769,259 L 768,259 L 767,260 L 767,260 L 766,260 L 765,260 L 764,261 L 764,261 L 763,261 L 762,261 L 761,261 L 760,262 L 760,262 L 759,262 L 758,262 L 757,263 L 757,263 L 756,263 L 755,263 L 754,264 L 754,264 L 753,264 L 752,264 L 751,265 L 751,265 L 750,265 L 749,265 L 748,266 L 748,266 L 747,266 L 746,266 L 745,267 L 745,267 L 744,267 L 743,267 L 742,268 L 742,268 L 741,268 L 740,268 L 739,269 L 739,269 L 738,269 L 737,269 L 736,270 L 736,270 L 735,270 L 734,270 L 733,271 L 733,271 L 732,271 L 731,272 L 731,272 L 730,272 L 729,272 L 728,273 L 728,273 L 727,273 L 726,273 L 725,274 L 725,274 L 724,274 L 723,274 L 722,275 L 722,275 L 721,275 L 720,276 L 720,276 L 719,276 L 718,277 L 718,277 L 717,277 L 716,277 L 715,278 L 715,278 L 714,278 L 713,279 L 713,279 L 712,279 L 711,279 L 710,280 L 710,280 L 709,280 L 708,281 L 708,281 L 707,281 L 706,282 L 706,282 L 705,282 L 704,282 L 703,283 L 703,283 L 702,283 L 701,284 L 701,284 L 700,284 L 699,285 L 699,285 L 698,285 L 697,286 L 697,286 L 696,286 L 695,287 L 695,287 L 694,287 L 693,288 L 693,288 L 692,288 L 691,289 L 691,289 L 690,289 L 689,290 L 689,290 L 688,290 L 687,291 L 687,291 L 686,291 L 685,292 L 685,292 L 684,292 L 683,293 L 683,293 L 682,293 L 681,294 L 681,294 L 680,294 L 679,295 L 679,295 L 678,296 L 678,296 L 677,296 L 676,297 L 676,297 L 675,297 L 674,298 L 674,298 L 673,298 L 672,299 L 672,299 L 671,300 L 671,300 L 670,300 L 669,301 L 669,301 L 668,301 L 667,302 L 667,302 L 666,303 L 666,303 L 665,303 L 664,304 L 664,304 L 663,305 L 663,305 L 662,305 L 661,306 L 661,306 L 660,307 L 660,307 L 659,307 L 658,308 L 658,308 L 657,309 L 657,309 L 656,309 L 655,310 L 655,310 L 654,311 L 654,311 L 653,311 L 652,312 L 652,312 L 651,313 L 651,313 L 650,314 L 650,314 L 649,314 L 648,315 L 648,315 L 647,316 L 647,316 L 646,316 L 645,317 L 645,317 L 644,318 L 644,318 L 643,318 L 642,319 L 642,319 L 641,320 L 641,320 L 640,320 L 639,321 L 639,321 L 638,322 L 638,322 L 637,323 L 637,323 L 636,323 L 635,324 L 635,324 L 634,325 L 634,325 L 633,326 L 633,326 L 632,326 L 631,327 L 631,327 L 630,328 L 630,328 L 629,329 L 629,329 L 628,330 L 628,330 L 627,330 L 626,331 L 626,331 L 625,332 L 625,332 L 624,333 L 624,333 L 623,333 L 622,334 L 622,334 L 621,335 L 621,335 L 620,336 L 620,336 L 619,337 L 619,337 L 618,338 L 618,338 L 617,338 L 616,339 L 616,339 L 615,340 L 615,340 L 614,341 L 614,341 L 613,342 L 613,342 L 612,343 L 612,343 L 611,344 L 611,344 L 610,345 L 610,345 L 609,345 L 608,346 L 608,346 L 607,347 L 607,347 L 606,348 L 606,348 L 605,349 L 605,349 L 604,350 L 604,350 L 603,351 L 603,351 L 602,352 L 602,352 L 601,353 L 601,353 L 600,354 L 600,354 L 599,355 L 599,355 L 598,356 L 598,356 L 597,357 L 597,357 L 596,358 L 596,358 L 595,359 L 595,359 L 594,360 L 594,360 L 593,361 L 593,361 L 592,362 L 592,362 L 591,363 L 591,364 L 591,364 L 590,365 L 590,365 L 589,366 L 589,366 L 588,367 L 588,367 L 587,368 L 587,368 L 586,369 L 586,369 L 585,370 L 585,370 L 584,371 L 584,371 L 583,372 L 583,373 L 583,373 L 582,374 L 582,374 L 581,375 L 581,375 L 580,376 L 580,376 L 579,377 L 579,377 L 578,378 L 578,378 L 577,379 L 577,380 L 577,380 L 576,381 L 576,381 L 575,382 L 575,382 L 574,383 L 574,383 L 573,384 L 573,385 L 573,385 L 572,386 L 572,386 L 571,387 L 571,388 L 571,388 L 570,389 L 570,389 L 569,390 L 569,390 L 568,391 L 568,392 L 568,392 L 567,393 L 567,393 L 566,394 L 566,395 L 566,395 L 565,396 L 565,396 L 564,397 L 564,398 L 564,398 L 563,399 L 563,399 L 562,400 L 562,401 L 562,401 L 561,402 L 561,402 L 560,403 L 560,404 L 560,404 L 559,405 L 559,405 L 558,406 L 558,407 L 558,407 L 557,408 L 557,408 L 556,409 L 556,410 L 556,410 L 555,411 L 555,411 L 554,412 L 554,413 L 554,413 L 553,414 L 553,414 L 552,415 L 552,416 L 552,416 L 551,417 L 551,418 L 551,418 L 550,419 L 550,419 L 549,420 L 549,421 L 549,421 L 548,422 L 548,422 L 547,423 L 547,424 L 547,424 L 546,425 L 546,426 L 546,426 L 545,427 L 545,427 L 544,428 L 544,429 L 544,429 L 543,430 L 543,431 L 543,431 L 542,432 L 542,432 L 541,433 L 541,434 L 541,434 L 540,435 L 540,436 L 540,436 L 539,437 L 539,438 L 539,438 L 538,439 L 538,440 L 538,440 L 537,441 L 537,441 L 536,442 L 536,443 L 536,443 L 535,444 L 535,445 L 535,445 L 534,446 L 534,447 L 534,447 L 533,448 L 533,449 L 533,449 L 532,450 L 532,451 L 532,451 L 531,452 L 531,453 L 531,453 L 530,454 L 530,455 L 530,455 L 529,456 L 529,456 L 528,457 L 528,458 L 528,458 L 527,459 L 527,460 L 527,461 L 527,462 L 527,463 L 528,463 L 528,464 L 528,465 L 529,465 L 529,466 L 529,467 L 530,467 L 530,468 L 530,469 L 531,469 L 531,470 L 531,471 L 532,471 L 532,472 L 532,473 L 533,473 L 533,474 L 533,475 L 534,475 L 534,476 L 534,477 L 535,477 L 535,478 L 535,479 L 536,479 L 536,480 L 536,481 L 537,481 L 537,482 L 537,483 L 538,483 L 538,484 L 538,485 L 539,485 L 539,486 L 539,487 L 539,488 L 540,488 L 540,489 L 540,490 L 541,490 L 541,491 L 541,492 L 541,493 L 542,493 L 542,494 L 542,495 L 543,495 L 543,496 L 543,497 L 543,498 L 544,498 L 544,499 L 544,500 L 544,501 L 545,501 L 545,502 L 545,503 L 545,504 L 546,504 L 546,505 L 546,506 L 546,507 L 547,507 L 547,508 L 547,509 L 547,510 L 548,510 L 548,511 L 548,512 L 548,513 L 549,513 L 549,514 L 549,515 L 549,516 L 549,517 L 550,517 L 550,518 L 550,519 L 550,520 L 550,521 L 550,522 L 551,522 L 551,523 L 551,524 L 551,525 L 551,526 L 551,527 L 552,527 L 552,528 L 552,529 L 552,530 L 552,531 L 552,532 L 552,533 L 553,533 L 553,534 L 553,535 L 553,536 L 553,537 L 553,538 L 553,539 L 554,539 L 554,540 L 554,541 L 554,542 L 554,543 L 554,544 L 554,545 L 554,546 L 555,546 L 555,547 L 555,548 L 555,549 L 555,550 L 555,551 L 555,552 L 555,553 L 555,554 L 556,554 L 556,555 L 556,556 L 556,557 L 556,558 L 556,559 L 556,560 L 556,561 L 556,562 L 556,563 L 556,564 L 557,564 L 557,565 L 557,566 L 557,567 L 557,568 L 557,569 L 557,570 L 557,571 L 557,572 L 557,573 L 557,574 L 557,575 L 558,575 L 558,576 L 558,577 L 558,578 L 558,579 L 558,580 L 558,581 L 558,582 L 558,583 L 558,584 L 558,585 L 558,586 L 558,587 L 558,587 L 557,588 L 557,589 L 557,590 L 557,591 L 557,592 L 557,593 L 557,594 L 557,595 L 557,596 L 557,597 L 557,598 L 557,599 L 557,600 L 557,601 L 557,601 L 556,602 L 556,603 L 556,604 L 556,605 L 556,606 L 556,607 L 556,608 L 556,609 L 556,610 L 556,611 L 556,611 L 555,612 L 555,613 L 555,614 L 555,615 L 555,616 L 555,617 L 555,618 L 555,618 L 554,619 L 554,620 L 554,621 L 554,622 L 554,623 L 554,624 L 554,625 L 554,625 L 553,626 L 553,627 L 553,628 L 553,629 L 553,630 L 553,630 L 552,631 L 552,632 L 552,633 L 552,634 L 552,635 L 552,636 L 552,636 L 551,637 L 551,638 L 551,639 L 551,640 L 551,640 L 550,641 L 550,642 L 550,643 L 550,644 L 550,645 L 550,645 L 549,646 L 549,647 L 549,648 L 549,649 L 549,649 L 548,650 L 548,651 L 548,652 L 548,653 L 548,653 L 547,654 L 547,655 L 547,656 L 547,656 L 546,657 L 546,658 L 546,659 L 546,660 L 546,660 L 545,661 L 545,662 L 545,663 L 545,664 L 545,664 L 544,665 L 544,666 L 544,667 L 544,667 L 543,668 L 543,669 L 543,670 L 543,670 L 542,671 L 542,672 L 542,673 L 542,673 L 541,674 L 541,675 L 541,675 L 540,676 L 540,677 L 540,678 L 540,678 L 539,679 L 539,680 L 539,681 L 539,681 L 538,682 L 538,683 L 538,683 L 537,684 L 537,685 L 537,686 L 537,686 L 536,687 L 536,688 L 536,688 L 535,689 L 535,690 L 535,691 L 535,691 L 534,692 L 534,693 L 534,693 L 533,694 L 533,695 L 533,695 L 532,696 L 532,697 L 532,698 L 532,698 L 531,699 L 531,700 L 531,700 L 530,701 L 530,702 L 530,702 L 529,703 L 529,704 L 529,704 L 528,705 L 528,706 L 528,706 L 527,707 L 527,708 L 527,709 L 527,709 L 526,710 L 526,711 L 526,711 L 525,712 L 525,713 L 525,713 L 524,714 L 524,715 L 524,715 L 523,716 L 523,717 L 523,717 L 522,718 L 522,719 L 522,720 L 522,721 L 523,721 L 523,722 L 523,723 L 524,723 L 524,724 L 524,725 L 525,725 L 525,726 L 525,727 L 526,727 L 526,728 L 526,729 L 526,730 L 527,730 L 527,731 L 527,732 L 528,732 L 528,733 L 528,734 L 529,734 L 529,735 L 529,736 L 530,736 L 530,737 L 530,738 L 531,738 L 531,739 L 531,740 L 532,740 L 532,741 L 532,742 L 533,742 L 533,743 L 534,743 L 534,744 L 534,745 L 535,745 L 535,746 L 535,747 L 536,747 L 536,748 L 537,748 L 537,749 L 537,750 L 538,750 L 538,751 L 539,751 L 539,752 L 539,753 L 540,753 L 540,754 L 541,754 L 541,755 L 541,756 L 542,756 L 542,757 L 543,757 L 543,758 L 543,759 L 544,759 L 544,760 L 545,760 L 545,761 L 546,761 L 546,762 L 546,763 L 547,763 L 547,764 L 548,764 L 548,765 L 549,765 L 549,766 L 549,767 L 550,767 L 550,768 L 551,768 L 551,769 L 552,769 L 552,770 L 552,771 L 553,771 L 553,772 L 553,773 L 554,773 L 554,774 L 554,775 L 554,776 L 554,777 L 554,777 L 553,778 L 553,778 L 552,779 L 552,779 L 551,780 L 551,780 Z" fill="none" stroke="magenta" stroke-width="2" /><path d="M 512,694 L 512,693 L 513,692 L 513,692 L 513,691 L 513,690 L 514,689 L 514,689 L 514,688 L 515,687 L 515,687 L 515,686 L 515,685 L 516,684 L 516,684 L 516,683 L 517,682 L 517,682 L 517,681 L 518,680 L 518,680 L 518,679 L 518,678 L 519,677 L 519,677 L 519,676 L 520,675 L 520,675 L 520,674 L 520,673 L 521,672 L 521,672 L 521,671 L 521,670 L 522,669 L 522,669 L 522,668 L 522,667 L 523,666 L 523,666 L 523,665 L 523,664 L 524,663 L 524,663 L 524,662 L 524,661 L 524,660 L 525,659 L 525,659 L 525,658 L 525,657 L 526,656 L 526,656 L 526,655 L 526,654 L 526,653 L 527,652 L 527,652 L 527,651 L 527,650 L 527,649 L 527,648 L 528,647 L 528,647 L 528,646 L 528,645 L 528,644 L 528,643 L 529,642 L 529,642 L 529,641 L 529,640 L 529,639 L 529,638 L 529,637 L 530,636 L 530,636 L 530,635 L 530,634 L 530,633 L 530,632 L 530,631 L 530,630 L 531,629 L 531,629 L 531,628 L 531,627 L 531,626 L 531,625 L 531,624 L 531,623 L 531,622 L 531,621 L 531,620 L 532,619 L 532,619 L 532,618 L 532,617 L 532,616 L 532,615 L 532,614 L 532,613 L 532,612 L 532,611 L 532,610 L 532,609 L 532,608 L 532,607 L 532,606 L 532,605 L 532,604 L 532,603 L 533,602 L 533,602 L 533,601 L 533,600 L 533,599 L 533,598 L 533,597 L 533,596 L 533,595 L 533,594 L 533,593 L 533,592 L 533,591 L 533,590 L 533,589 L 533,588 L 533,587 L 533,586 L 533,585 L 533,584 L 533,583 L 533,582 L 533,581 L 532,581 L 532,580 L 532,579 L 532,578 L 532,577 L 532,576 L 532,575 L 532,574 L 532,573 L 532,572 L 532,571 L 532,570 L 532,569 L 532,568 L 532,567 L 531,567 L 531,566 L 531,565 L 531,564 L 531,563 L 531,562 L 531,561 L 531,560 L 531,559 L 531,558 L 530,558 L 530,557 L 530,556 L 530,555 L 530,554 L 530,553 L 530,552 L 529,552 L 529,551 L 529,550 L 529,549 L 529,548 L 529,547 L 529,546 L 528,546 L 528,545 L 528,544 L 528,543 L 528,542 L 527,542 L 527,541 L 527,540 L 527,539 L 527,538 L 527,537 L 526,537 L 526,536 L 526,535 L 526,534 L 526,533 L 525,533 L 525,532 L 525,531 L 525,530 L 525,529 L 524,529 L 524,528 L 524,527 L 524,526 L 523,526 L 523,525 L 523,524 L 523,523 L 523,522 L 522,522 L 522,521 L 522,520 L 522,519 L 521,519 L 521,518 L 521,517 L 521,516 L 520,516 L 520,515 L 520,514 L 520,513 L 519,513 L 519,512 L 519,511 L 519,510 L 518,510 L 518,509 L 518,508 L 518,507 L 517,507 L 517,506 L 517,505 L 516,505 L 516,504 L 516,503 L 516,502 L 515,502 L 515,501 L 515,500 L 514,500 L 514,499 L 514,498 L 514,497 L 513,497 L 513,496 L 513,495 L 513,494 L 512,494 L 512,493 L 512,492 L 511,493 L 511,493 L 510,494 L 510,495 L 510,495 L 509,496 L 509,497 L 509,498 L 509,498 L 508,499 L 508,500 L 508,501 L 508,501 L 507,502 L 507,503 L 507,503 L 506,504 L 506,505 L 506,506 L 506,506 L 505,507 L 505,508 L 505,509 L 505,509 L 504,510 L 504,511 L 504,512 L 504,512 L 503,513 L 503,514 L 503,515 L 503,515 L 502,516 L 502,517 L 502,518 L 502,518 L 501,519 L 501,520 L 501,520 L 500,521 L 500,522 L 500,523 L 500,524 L 500,524 L 499,525 L 499,526 L 499,527 L 499,527 L 498,528 L 498,529 L 498,530 L 498,531 L 498,531 L 497,532 L 497,533 L 497,534 L 497,535 L 497,535 L 496,536 L 496,537 L 496,538 L 496,539 L 496,539 L 495,540 L 495,541 L 495,542 L 495,543 L 495,543 L 494,544 L 494,545 L 494,546 L 494,547 L 494,548 L 494,548 L 493,549 L 493,550 L 493,551 L 493,552 L 493,553 L 493,553 L 492,554 L 492,555 L 492,556 L 492,557 L 492,558 L 492,559 L 492,559 L 491,560 L 491,561 L 491,562 L 491,563 L 491,564 L 491,565 L 491,566 L 491,566 L 490,567 L 490,568 L 490,569 L 490,570 L 490,571 L 490,572 L 490,573 L 490,574 L 490,575 L 490,576 L 490,577 L 490,578 L 490,579 L 490,580 L 490,581 L 490,582 L 490,583 L 490,584 L 490,585 L 490,585 L 489,586 L 490,586 L 490,587 L 490,587 L 489,588 L 489,589 L 489,590 L 489,591 L 489,592 L 489,593 L 490,593 L 490,594 L 490,595 L 490,596 L 490,597 L 490,598 L 490,599 L 490,600 L 490,601 L 490,602 L 490,603 L 490,604 L 490,605 L 490,606 L 490,607 L 490,608 L 490,609 L 490,610 L 490,611 L 490,612 L 490,613 L 490,614 L 491,614 L 491,615 L 491,616 L 491,617 L 491,618 L 491,619 L 491,620 L 491,621 L 491,622 L 491,623 L 491,624 L 492,624 L 492,625 L 492,626 L 492,627 L 492,628 L 492,629 L 492,630 L 492,631 L 493,631 L 493,632 L 493,633 L 493,634 L 493,635 L 493,636 L 493,637 L 494,637 L 494,638 L 494,639 L 494,640 L 494,641 L 494,642 L 494,643 L 495,643 L 495,644 L 495,645 L 495,646 L 495,647 L 496,647 L 496,648 L 496,649 L 496,650 L 496,651 L 497,651 L 497,652 L 497,653 L 497,654 L 497,655 L 497,656 L 498,656 L 498,657 L 498,658 L 498,659 L 499,659 L 499,660 L 499,661 L 499,662 L 500,662 L 500,663 L 500,664 L 500,665 L 500,666 L 501,666 L 501,667 L 501,668 L 501,669 L 502,669 L 502,670 L 502,671 L 503,671 L 503,672 L 503,673 L 503,674 L 504,674 L 504,675 L 504,676 L 504,677 L 505,677 L 505,678 L 505,679 L 506,679 L 506,680 L 506,681 L 506,682 L 507,682 L 507,683 L 507,684 L 508,684 L 508,685 L 508,686 L 508,687 L 509,687 L 509,688 L 509,689 L 510,689 L 510,690 L 510,691 L 510,692 L 511,692 L 511,693 L 511,694 L 512,694 L 512,694 Z" fill="none" stroke="magenta" stroke-width="2" /></svg>